<svg xmlns="http://www.w3.org/2000/svg" viewBox="0 0 672 672" width="672" height="672">
  <g transform="translate(0, 176)">
  <rect x="512" y="160" width="32" height="32" fill="#ffffff" />
  <rect x="544" y="160" width="32" height="32" fill="#ffffff" />
  <rect x="576" y="160" width="32" height="32" fill="#ffffff" />
  <rect x="576" y="192" width="32" height="32" fill="#ffffff" />
  <rect x="576" y="224" width="32" height="32" fill="#ffffff" />
  <rect x="544" y="224" width="32" height="32" fill="#ffffff" />
  <rect x="512" y="224" width="32" height="32" fill="#ffffff" />
  <rect x="480" y="224" width="32" height="32" fill="#ffffff" />
  <rect x="384" y="224" width="32" height="32" fill="#ffffff" />
  <rect x="352" y="224" width="32" height="32" fill="#ffffff" />
  <rect x="320" y="224" width="32" height="32" fill="#ffffff" />
  <rect x="288" y="224" width="32" height="32" fill="#ffffff" />
  <rect x="320" y="160" width="32" height="32" fill="#ffffff" />
  <rect x="352" y="160" width="32" height="32" fill="#ffffff" />
  <rect x="384" y="160" width="32" height="32" fill="#ffffff" />
  <rect x="224" y="224" width="32" height="32" fill="#ffffff" />
  <rect x="160" y="224" width="32" height="32" fill="#ffffff" />
  <rect x="128" y="224" width="32" height="32" fill="#ffffff" />
  <rect x="96" y="224" width="32" height="32" fill="#ffffff" />
  <rect x="256" y="224" width="32" height="32" fill="#ffffff" />
  <rect x="192" y="224" width="32" height="32" fill="#ffffff" />
  <rect x="448" y="160" width="32" height="32" fill="#ffffff" />
  <rect x="448" y="192" width="32" height="32" fill="#ffffff" />
  <rect x="448" y="224" width="32" height="32" fill="#ffffff" />
  <rect x="416" y="224" width="32" height="32" fill="#ffffff" />
  <rect x="416" y="160" width="32" height="32" fill="#ffffff" />
  <rect x="320" y="192" width="32" height="32" fill="#ffffff" />
  <rect x="320" y="128" width="32" height="32" fill="#ffffff" />
  <rect x="320" y="96" width="32" height="32" fill="#ffffff" />
  <rect x="320" y="64" width="32" height="32" fill="#ffffff" />
  <rect x="256" y="64" width="32" height="32" fill="#ffffff" />
  <rect x="256" y="96" width="32" height="32" fill="#ffffff" />
  <rect x="256" y="128" width="32" height="32" fill="#ffffff" />
  <rect x="256" y="160" width="32" height="32" fill="#ffffff" />
  <rect x="256" y="192" width="32" height="32" fill="#ffffff" />
  <rect x="192" y="160" width="32" height="32" fill="#ffffff" />
  <rect x="192" y="192" width="32" height="32" fill="#ffffff" />
  <rect x="160" y="160" width="32" height="32" fill="#ffffff" />
  <rect x="128" y="160" width="32" height="32" fill="#ffffff" />
  <rect x="96" y="160" width="32" height="32" fill="#ffffff" />
  <rect x="64" y="160" width="32" height="32" fill="#ffffff" />
  <rect x="64" y="192" width="32" height="32" fill="#ffffff" />
  <rect x="64" y="224" width="32" height="32" fill="#ffffff" />
  <rect x="64" y="128" width="32" height="32" fill="#ffffff" />
  <rect x="64" y="96" width="32" height="32" fill="#ffffff" />
  <rect x="64" y="64" width="32" height="32" fill="#ffffff" />
  <rect x="96" y="64" width="32" height="32" fill="#ffffff" />
  <rect x="128" y="64" width="32" height="32" fill="#ffffff" />
  <rect x="160" y="64" width="32" height="32" fill="#ffffff" />
  <rect x="192" y="64" width="32" height="32" fill="#ffffff" />
  <rect x="224" y="64" width="32" height="32" fill="#ffffff" />
  <rect x="288" y="64" width="32" height="32" fill="#ffffff" />
  <rect x="352" y="64" width="32" height="32" fill="#ffffff" />
  <rect x="384" y="64" width="32" height="32" fill="#ffffff" />
  <rect x="416" y="64" width="32" height="32" fill="#ffffff" />
  <rect x="448" y="64" width="32" height="32" fill="#ffffff" />
  <rect x="480" y="64" width="32" height="32" fill="#ffffff" />
  <rect x="512" y="64" width="32" height="32" fill="#ffffff" />
  <rect x="576" y="64" width="32" height="32" fill="#ffffff" />
  <rect x="544" y="64" width="32" height="32" fill="#ffffff" />
  <rect x="0" y="32" width="32" height="32" fill="#ffffff" />
  <rect x="0" y="64" width="32" height="32" fill="#ffffff" />
  <rect x="0" y="96" width="32" height="32" fill="#ffffff" />
  <rect x="0" y="128" width="32" height="32" fill="#ffffff" />
  <rect x="0" y="160" width="32" height="32" fill="#ffffff" />
  <rect x="0" y="192" width="32" height="32" fill="#ffffff" />
  <rect x="0" y="224" width="32" height="32" fill="#ffffff" />
  <rect x="0" y="256" width="32" height="32" fill="#ffffff" />
  <rect x="0" y="288" width="32" height="32" fill="#ffffff" />
  <rect x="32" y="288" width="32" height="32" fill="#ffffff" />
  <rect x="64" y="288" width="32" height="32" fill="#ffffff" />
  <rect x="96" y="288" width="32" height="32" fill="#ffffff" />
  <rect x="128" y="288" width="32" height="32" fill="#ffffff" />
  <rect x="160" y="288" width="32" height="32" fill="#ffffff" />
  <rect x="192" y="288" width="32" height="32" fill="#ffffff" />
  <rect x="224" y="288" width="32" height="32" fill="#ffffff" />
  <rect x="256" y="288" width="32" height="32" fill="#ffffff" />
  <rect x="288" y="288" width="32" height="32" fill="#ffffff" />
  <rect x="320" y="288" width="32" height="32" fill="#ffffff" />
  <rect x="352" y="288" width="32" height="32" fill="#ffffff" />
  <rect x="384" y="288" width="32" height="32" fill="#ffffff" />
  <rect x="416" y="288" width="32" height="32" fill="#ffffff" />
  <rect x="480" y="288" width="32" height="32" fill="#ffffff" />
  <rect x="512" y="288" width="32" height="32" fill="#ffffff" />
  <rect x="544" y="288" width="32" height="32" fill="#ffffff" />
  <rect x="576" y="288" width="32" height="32" fill="#ffffff" />
  <rect x="608" y="288" width="32" height="32" fill="#ffffff" />
  <rect x="640" y="288" width="32" height="32" fill="#ffffff" />
  <rect x="448" y="288" width="32" height="32" fill="#ffffff" />
  <rect x="640" y="0" width="32" height="32" fill="#ffffff" />
  <rect x="640" y="32" width="32" height="32" fill="#ffffff" />
  <rect x="640" y="64" width="32" height="32" fill="#ffffff" />
  <rect x="640" y="96" width="32" height="32" fill="#ffffff" />
  <rect x="640" y="128" width="32" height="32" fill="#ffffff" />
  <rect x="640" y="160" width="32" height="32" fill="#ffffff" />
  <rect x="640" y="192" width="32" height="32" fill="#ffffff" />
  <rect x="640" y="224" width="32" height="32" fill="#ffffff" />
  <rect x="640" y="256" width="32" height="32" fill="#ffffff" />
  <rect x="608" y="0" width="32" height="32" fill="#ffffff" />
  <rect x="576" y="0" width="32" height="32" fill="#ffffff" />
  <rect x="544" y="0" width="32" height="32" fill="#ffffff" />
  <rect x="512" y="0" width="32" height="32" fill="#ffffff" />
  <rect x="480" y="0" width="32" height="32" fill="#ffffff" />
  <rect x="448" y="0" width="32" height="32" fill="#ffffff" />
  <rect x="416" y="0" width="32" height="32" fill="#ffffff" />
  <rect x="384" y="0" width="32" height="32" fill="#ffffff" />
  <rect x="352" y="0" width="32" height="32" fill="#ffffff" />
  <rect x="64" y="0" width="32" height="32" fill="#ffffff" />
  <rect x="32" y="0" width="32" height="32" fill="#ffffff" />
  <rect x="0" y="0" width="32" height="32" fill="#ffffff" />
  <rect x="96" y="0" width="32" height="32" fill="#ffffff" />
  <rect x="128" y="0" width="32" height="32" fill="#ffffff" />
  <rect x="160" y="0" width="32" height="32" fill="#ffffff" />
  <rect x="192" y="0" width="32" height="32" fill="#ffffff" />
  <rect x="224" y="0" width="32" height="32" fill="#ffffff" />
  <rect x="256" y="0" width="32" height="32" fill="#ffffff" />
  <rect x="288" y="0" width="32" height="32" fill="#ffffff" />
  <rect x="320" y="0" width="32" height="32" fill="#ffffff" />
  </g>
</svg>
